<?xml version="1.0" encoding="UTF-8" standalone="no"?>
<!DOCTYPE svg PUBLIC "-//W3C//DTD SVG 1.1//EN" "http://www.w3.org/Graphics/SVG/1.1/DTD/svg11.dtd">
<svg width="100%" height="100%" viewBox="0 0 3000 800" version="1.1" xmlns="http://www.w3.org/2000/svg" xmlns:xlink="http://www.w3.org/1999/xlink" xml:space="preserve" xmlns:serif="http://www.serif.com/" style="fill-rule:evenodd;clip-rule:evenodd;stroke-linejoin:round;stroke-miterlimit:2;">
    <g transform="matrix(1,0,0,1,-733.161,-1294.71)">
        <path d="M1278.81,1777.22C1279.11,1685.47 1353.67,1611.09 1445.48,1611.09L1445.48,1694.42C1399.48,1694.42 1362.14,1731.76 1362.14,1777.76L1362.14,1944.42L1278.81,1944.42L1278.81,1777.76L1278.81,1777.22Z" style="fill:white;"/>
    </g>
    <g transform="matrix(0.707107,-0.707107,0.707107,0.707107,-604.12,793.291)">
        <path d="M946.956,674.819C854.97,674.819 780.289,600.138 780.289,508.152C780.289,416.166 854.97,341.485 946.956,341.485C1038.94,341.485 1113.62,416.166 1113.62,508.152L1030.29,508.152C1030.29,462.159 992.949,424.819 946.956,424.819C900.963,424.819 863.622,462.159 863.622,508.152C863.622,554.145 900.963,591.485 946.956,591.485L946.956,674.819Z" style="fill:white;"/>
    </g>
    <g transform="matrix(1,0,0,1,-1001.56,-128.132)">
        <path d="M1994.88,732.454C1965.04,760.587 1924.83,777.841 1880.61,777.841C1788.63,777.841 1713.95,703.16 1713.95,611.174C1713.95,519.188 1788.63,444.507 1880.61,444.507C1972.6,444.507 2047.28,519.188 2047.28,611.174C2047.28,621.081 2046.41,630.787 2044.75,640.21L1909.93,640.21L1909.93,640.341L1802.54,640.341C1814.37,671.97 1844.88,694.507 1880.61,694.507C1901.8,694.507 1921.15,686.585 1935.86,673.544L1935.98,673.544L1994.88,732.454ZM1958.69,582.007L1802.54,582.007C1814.37,550.378 1844.88,527.841 1880.61,527.841C1916.35,527.841 1946.85,550.378 1958.69,582.007Z" style="fill:white;"/>
    </g>
    <g transform="matrix(1,0,0,1,610.397,-128.132)">
        <path d="M1994.88,732.454C1965.04,760.587 1924.83,777.841 1880.61,777.841C1788.63,777.841 1713.95,703.16 1713.95,611.174C1713.95,519.188 1788.63,444.507 1880.61,444.507C1972.6,444.507 2047.28,519.188 2047.28,611.174C2047.28,621.081 2046.41,630.787 2044.75,640.21L1909.93,640.21L1909.93,640.341L1802.54,640.341C1814.37,671.97 1844.88,694.507 1880.61,694.507C1901.8,694.507 1921.15,686.585 1935.86,673.544L1935.98,673.544L1994.88,732.454ZM1958.69,582.007L1802.54,582.007C1814.37,550.378 1844.88,527.841 1880.61,527.841C1916.35,527.841 1946.85,550.378 1958.69,582.007Z" style="fill:white;"/>
    </g>
    <g transform="matrix(6.12323e-17,-1,1,6.12323e-17,-483.563,1549.71)">
        <path d="M1066.67,1777.76L1066.67,1861.09C1020.67,1861.09 983.333,1898.43 983.333,1944.42L900,1944.42C900,1852.44 974.681,1777.76 1066.67,1777.76Z" style="fill:white;"/>
    </g>
    <g transform="matrix(1,0,0,1.9729,394.194,-3648.73)">
        <rect x="900" y="2009.79" width="83.333" height="84.478" style="fill:white;"/>
    </g>
    <g transform="matrix(1,0,0,1,23.7257,-1521.92)">
        <path d="M1885.47,1671.88L1802.13,1702.21L1802.13,1838.29L1885.47,1838.29L1885.47,1671.88Z" style="fill:white;"/>
    </g>
    <g transform="matrix(1,0,0,1.03623,-844.778,-156.316)">
        <path d="M2753.97,611.174L2670.64,611.174L2670.64,777.841L2753.97,777.841L2753.97,611.174ZM2753.97,444.507L2670.64,444.507L2670.64,611.174L2753.97,611.174L2753.97,444.507Z" style="fill:white;"/>
    </g>
    <g transform="matrix(1,0,0,1,-1472.09,-127.55)">
        <g transform="matrix(0.819152,0.573576,-0.59671,0.852191,1805.42,-1466.11)">
            <path d="M2753.97,611.174L2670.64,611.174L2670.64,777.841L2753.97,777.841L2753.97,611.174ZM2753.97,444.507L2670.64,444.507L2670.64,611.174L2753.97,611.174L2753.97,444.507Z" style="fill:white;"/>
        </g>
        <path d="M3528.93,728.681L3528.93,777.841L3795.6,777.841L3795.6,694.507L3552.86,694.507L3528.93,728.681Z" style="fill:white;"/>
        <path d="M3771.18,527.841L3795.6,492.975L3795.6,444.507L3528.93,444.507L3528.93,527.841L3771.18,527.841Z" style="fill:white;"/>
    </g>
    <g transform="matrix(6.12323e-17,-1,1.23306,7.55032e-17,-1322.25,1299.71)">
        <rect x="900" y="2009.79" width="83.333" height="84.478" style="fill:white;"/>
    </g>
    <g transform="matrix(6.12323e-17,-1,1.47967,9.06038e-17,-1942.05,1549.82)">
        <rect x="900" y="2009.79" width="83.333" height="84.478" style="fill:white;"/>
    </g>
    <g transform="matrix(1,0,0,1,324.827,-25.1093)">
        <path d="M1302.7,341.485C1394.69,341.485 1469.37,416.166 1469.37,508.152C1469.37,600.138 1394.69,674.819 1302.7,674.819C1210.71,674.819 1136.03,600.138 1136.03,508.152C1136.03,416.166 1210.71,341.485 1302.7,341.485ZM1302.7,424.819C1348.69,424.819 1386.03,462.159 1386.03,508.152C1386.03,554.145 1348.69,591.485 1302.7,591.485C1256.71,591.485 1219.37,554.145 1219.37,508.152C1219.37,462.159 1256.71,424.819 1302.7,424.819Z" style="fill:white;"/>
    </g>
    <g transform="matrix(1,0,0,1.9729,810.861,-3482.06)">
        <rect x="900" y="2009.79" width="83.333" height="84.478" style="fill:white;"/>
    </g>
    <g transform="matrix(1,0,0,1,-688.778,-128.132)">
        <path d="M1844.72,694.621C1856.22,694.621 1865.55,685.286 1865.55,673.788C1865.55,662.289 1856.22,652.954 1844.72,652.954L1844.72,569.621C1902.21,569.621 1948.88,616.296 1948.88,673.788C1948.88,731.279 1902.21,777.954 1844.72,777.954L1844.72,694.621ZM1844.72,527.841C1833.22,527.841 1823.88,537.176 1823.88,548.674C1823.88,560.172 1833.22,569.507 1844.72,569.507L1844.72,652.841C1787.23,652.841 1740.55,606.165 1740.55,548.674C1740.55,491.183 1787.23,444.507 1844.72,444.507L1844.72,527.841Z" style="fill:white;"/>
    </g>
    <g transform="matrix(6.12323e-17,-1,1,6.12323e-17,-483.563,1549.71)">
        <path d="M1066.67,1777.76L1066.67,1861.09C1020.67,1861.09 983.333,1898.43 983.333,1944.42L900,1944.42C900,1852.44 974.681,1777.76 1066.67,1777.76Z" style="fill:white;"/>
    </g>
    <g transform="matrix(1,0,0,1.9729,394.194,-3648.73)">
        <rect x="900" y="2009.79" width="83.333" height="84.478" style="fill:white;"/>
    </g>
    <g transform="matrix(6.12323e-17,-1,1.9729,1.20805e-16,-2670.91,1299.71)">
        <rect x="900" y="2009.79" width="83.333" height="84.478" style="fill:white;"/>
    </g>
    <g transform="matrix(6.12323e-17,-1,1.23306,7.55032e-17,-1322.25,1299.71)">
        <rect x="900" y="2009.79" width="83.333" height="84.478" style="fill:white;"/>
    </g>
    <g transform="matrix(1,0,0,1,324.827,-25.1093)">
        <path d="M1302.7,341.485C1350.5,341.485 1393.63,361.652 1424.03,393.934C1452.13,423.775 1469.37,463.967 1469.37,508.152C1469.37,600.138 1394.69,674.819 1302.7,674.819C1210.71,674.819 1136.03,600.138 1136.03,508.152C1136.03,416.166 1210.71,341.485 1302.7,341.485ZM1302.7,424.819C1348.69,424.819 1386.03,462.159 1386.03,508.152C1386.03,554.145 1348.69,591.485 1302.7,591.485C1256.71,591.485 1219.37,554.145 1219.37,508.152C1219.37,462.159 1256.71,424.819 1302.7,424.819Z" style="fill:white;"/>
    </g>
    <g transform="matrix(1,0,0,1.9729,810.861,-3482.06)">
        <rect x="900" y="2009.79" width="83.333" height="84.478" style="fill:white;"/>
    </g>
    <g transform="matrix(1,0,0,1,-688.778,-128.132)">
        <path d="M1844.72,694.621C1856.22,694.621 1865.55,685.286 1865.55,673.788C1865.55,662.289 1856.22,652.954 1844.72,652.954L1844.72,569.621C1902.21,569.621 1948.88,616.296 1948.88,673.788C1948.88,731.279 1902.21,777.954 1844.72,777.954L1844.72,694.621ZM1844.72,527.841C1833.22,527.841 1823.88,537.176 1823.88,548.674C1823.88,560.172 1833.22,569.507 1844.72,569.507L1844.72,652.841C1787.23,652.841 1740.55,606.165 1740.55,548.674C1740.55,491.183 1787.23,444.507 1844.72,444.507L1844.72,527.841Z" style="fill:white;"/>
    </g>
    <g transform="matrix(1,0,0,0.976199,0,15.4638)">
        <path d="M2024.19,483.043L1940.86,483.043L1940.86,649.709L2024.19,649.709L2024.19,483.043ZM2024.14,316.376L1940.86,346.691L1940.86,483.043L2024.19,483.043L2024.19,316.376L2024.14,316.376Z" style="fill:white;"/>
    </g>
    <g transform="matrix(1,0,0,1,0,50)">
        <path d="M1376.92,149.709L1294.19,179.82L1294.19,316.376L1377.53,316.376L1377.53,149.709L1376.92,149.709Z" style="fill:white;"/>
    </g>
    <g transform="matrix(0.948003,0,0,0.978763,90.8525,-21.8988)">
        <ellipse cx="1995.73" cy="283.133" rx="52.742" ry="51.085" style="fill:rgb(12,163,235);"/>
    </g>
    <path d="M1940.86,316.759C1952.55,325.537 1967.08,330.737 1982.81,330.737C1998.28,330.737 2012.59,325.706 2024.19,317.19L2024.19,354.616L1940.86,354.616L1940.86,316.759Z" style="fill:white;"/>
</svg>
